<svg width="80" height="16" viewBox="0 0 80 16" fill="none" xmlns="http://www.w3.org/2000/svg">
<g clip-path="url(#clip0_6847_44937)">
<g clip-path="url(#clip1_6847_44937)">
<path d="M2.299 10.6733L0.7926 11.3965C-0.2642 9.19092 -0.2642 6.67972 0.7926 4.47332L2.299 5.19652C2.7806 5.44852 3.0366 5.98372 2.8766 6.48452C2.6214 7.42772 2.6214 8.40292 2.8766 9.34692C3.0358 9.85332 2.7806 10.4181 2.299 10.6725V10.6733ZM6.6878 13.0357C5.727 12.7837 4.8622 12.3125 4.1566 11.6173C3.7734 11.2413 3.1638 11.1741 2.7142 11.4613L1.303 12.3725C2.7142 14.3869 4.967 15.7029 7.435 15.8909L7.5182 14.1949C7.5822 13.6309 7.231 13.1589 6.6854 13.0349H6.6878V13.0357ZM1.3382 3.53092L2.7494 4.44212C3.1998 4.72612 3.8062 4.66212 4.1918 4.28612C4.8654 3.59412 5.7622 3.09092 6.723 2.86772C7.2686 2.74372 7.6198 2.26852 7.5878 1.73652V0.101318C5.0534 0.257318 2.7806 1.51972 1.3382 3.53092Z" fill="url(#paint0_linear_6847_44937)"/>
<path d="M34.8789 1.78381L34.8853 10.2734L35.4413 11.0262L37.2509 13.5254C37.2509 13.5254 37.6029 14.0334 37.6277 14.5326V6.02781C36.3005 4.34141 35.2837 3.04541 35.1797 2.90221C34.9453 2.58061 34.8765 2.15101 34.8797 1.78461H34.8789V1.78381Z" fill="url(#paint1_linear_6847_44937)"/>
<path d="M12.3244 11.4325C12.3244 11.4325 11.5548 12.5005 9.44201 13.0997C8.89641 13.2237 8.54521 13.6957 8.57721 14.2309L8.67961 15.8949C10.6332 15.7357 12.6284 14.8301 13.902 13.6669C13.902 13.6669 13.9468 13.6293 13.9684 13.6093C13.922 13.5653 13.8772 13.5205 13.8316 13.4757C13.3948 12.9741 12.7732 12.3509 12.346 11.4133L12.3244 11.4325V11.4325Z" fill="url(#paint2_linear_6847_44937)"/>
<path d="M80 0.114136V1.62454C80 2.22374 79.4864 2.72454 78.8792 2.72454H74.0025V14.4949C74.0025 15.3797 73.3593 15.8917 72.6785 15.8917C71.9233 15.8917 71.3761 15.2333 71.3761 14.4949V2.72774H63.3994C60.4538 2.72774 58.0498 5.05733 58.0498 7.98373C58.0498 10.9101 60.421 13.1885 63.3994 13.1885C64.8745 13.1885 66.2497 12.6213 67.2745 11.5821C67.6577 11.2061 68.2353 11.1389 68.6849 11.4581L70.0641 12.3693C68.5897 14.5397 66.1793 15.9197 63.5178 15.8909C60.3098 15.8909 58.1522 14.0709 57.501 13.1877C54.5546 9.94613 54.8098 5.02854 58.1106 2.13094C59.553 0.875736 61.3786 0.149336 63.3002 0.117336H80V0.114136Z" fill="url(#paint3_linear_6847_44937)"/>
<path d="M57.5008 13.1877C57.4704 13.1541 57.4408 13.1197 57.4104 13.0861H48.4608V9.26052L52.2784 9.27092C53.016 9.27092 53.6832 8.63332 53.6832 7.86852C53.6832 7.23092 53.172 6.46612 52.2784 6.46612H48.4608V2.70852H54.8672C55.4128 2.70852 55.9592 2.51732 56.3736 2.14132L58.008 0.662118C58.072 0.630118 58.104 0.538118 58.104 0.442118C58.104 0.254118 57.976 0.130118 57.7848 0.130118H46.9248C46.3184 0.130118 45.8048 0.630918 45.8048 1.23012V11.0789L38.4601 1.28372C38.0449 0.687718 37.3681 0.101318 36.6601 0.101318C35.9521 0.101318 35.3321 0.350118 34.9873 1.08612C34.8753 1.32852 34.7449 2.30052 35.1785 2.89652C35.5009 3.33972 44.5281 14.7757 44.5281 14.7757C45.2745 15.6933 46.2224 15.8941 46.96 15.8941H63.2583L63.2511 15.8861C60.1903 15.7893 58.1336 14.0461 57.5008 13.1877V13.1877Z" fill="url(#paint4_linear_6847_44937)"/>
<path d="M57.5011 13.1878C57.4715 13.155 57.4427 13.1222 57.4139 13.0894H54.4387V15.891H63.2563L63.2523 15.8862C60.1915 15.7894 58.1347 14.0462 57.5019 13.1878H57.5011V13.1878Z" fill="url(#paint5_linear_6847_44937)"/>
<path d="M37.2507 13.5229L35.4411 11.0237L28.1115 1.10529C27.6939 0.506092 26.9979 0.104492 26.2636 0.104492C25.4636 0.104492 24.5996 0.810092 24.5972 1.62769V7.83991L27.2962 7.83991L27.2715 4.82129L34.5523 14.9861C35.0371 15.6093 35.5739 15.9741 36.4035 15.8853C37.2331 15.7989 37.5555 15.2861 37.6227 14.6933C37.6835 14.1485 37.2491 13.5237 37.2491 13.5237H37.2507V13.5229Z" fill="#39DECF"/>
<path d="M27.294 7.67991V7.67991C27.2316 7.46091 27.2 7.23432 27.2 7.00662V4.79991L24.598 1.98449C23.19 0.766092 21.3556 0.104492 19.4677 0.104492C18.3773 0.104492 17.2837 0.330092 16.2741 0.781292C16.2173 0.806892 16.1597 0.832492 16.1037 0.859692C12.1013 2.74689 10.5501 7.36529 12.3245 11.3685C12.7525 12.3309 13.3877 12.9653 13.8309 13.4749C15.3021 14.9541 17.3549 15.8909 19.4677 15.8909C23.8596 15.8621 27.3292 12.1869 27.2972 7.87489V7.87169L27.294 7.74769V7.67991ZM24.598 7.87809C24.63 10.7405 22.2548 13.1885 19.3093 13.2197C16.4589 13.2197 14.0869 10.8645 14.0557 8.03409C14.0381 6.26129 14.9149 4.68369 16.2757 3.73009C17.1149 3.14209 18.1373 2.79089 19.2493 2.77809C22.1236 2.74689 24.5044 4.93729 24.5988 7.74689C24.6004 7.78529 24.5988 7.83889 24.5988 7.87729L24.598 7.87809Z" fill="url(#paint6_linear_6847_44937)"/>
<path d="M19.2477 2.78139C22.1221 2.75019 24.5029 4.94059 24.5973 7.75019V1.98779C23.1901 0.769388 21.3557 0.107788 19.4685 0.107788C18.3781 0.107788 17.2845 0.333388 16.2749 0.784588V3.73339C17.1141 3.14539 18.1365 2.79419 19.2485 2.78139H19.2477Z" fill="url(#paint7_linear_6847_44937)"/>
</g>
</g>
<defs>
<linearGradient id="paint0_linear_6847_44937" x1="1.2254" y1="12.2541" x2="52.8358" y2="-31.8395" gradientUnits="userSpaceOnUse">
<stop stop-color="#30EBA7"/>
<stop offset="0.5" stop-color="#32E1F5"/>
<stop offset="1" stop-color="#1478DE"/>
</linearGradient>
<linearGradient id="paint1_linear_6847_44937" x1="36.2533" y1="1.82701" x2="36.2533" y2="15.1414" gradientUnits="userSpaceOnUse">
<stop stop-color="#0F757B"/>
<stop offset="1" stop-color="#46C6CC"/>
</linearGradient>
<linearGradient id="paint2_linear_6847_44937" x1="8.47081" y1="15.3405" x2="14.3972" y2="11.8221" gradientUnits="userSpaceOnUse">
<stop stop-color="#31EAB0"/>
<stop offset="0.32" stop-color="#35E7B0"/>
<stop offset="0.44" stop-color="#39E6B0"/>
<stop offset="0.55" stop-color="#2FCFA2"/>
<stop offset="0.79" stop-color="#15977F"/>
<stop offset="0.89" stop-color="#097B6E"/>
</linearGradient>
<linearGradient id="paint3_linear_6847_44937" x1="56.4978" y1="8.00293" x2="80.0096" y2="8.00293" gradientUnits="userSpaceOnUse">
<stop offset="0.12" stop-color="#2AC3F5"/>
<stop offset="1" stop-color="#0A7DED"/>
</linearGradient>
<linearGradient id="paint4_linear_6847_44937" x1="36.0945" y1="7.99812" x2="59.1791" y2="7.99812" gradientUnits="userSpaceOnUse">
<stop stop-color="#33D2D9"/>
<stop offset="1" stop-color="#1CC4FF"/>
</linearGradient>
<linearGradient id="paint5_linear_6847_44937" x1="64.7563" y1="14.4902" x2="53.3027" y2="14.4902" gradientUnits="userSpaceOnUse">
<stop offset="0.29" stop-color="#127CA2"/>
<stop offset="0.78" stop-color="#22C8F6"/>
</linearGradient>
<linearGradient id="paint6_linear_6847_44937" x1="34.8923" y1="7.99729" x2="7.84535" y2="7.99729" gradientUnits="userSpaceOnUse">
<stop offset="0.33" stop-color="#39DECF"/>
<stop offset="0.84" stop-color="#2EE4B7"/>
</linearGradient>
<linearGradient id="paint7_linear_6847_44937" x1="28.6229" y1="3.92939" x2="14.2861" y2="3.92939" gradientUnits="userSpaceOnUse">
<stop offset="0.2" stop-color="#0D7D76"/>
<stop offset="0.5" stop-color="#34DDC3"/>
<stop offset="0.88" stop-color="#30E3BC"/>
</linearGradient>
<clipPath id="clip0_6847_44937">
<rect width="80" height="16" fill="white"/>
</clipPath>
<clipPath id="clip1_6847_44937">
<rect width="80" height="15.84" fill="white" transform="translate(0 0.0799561)"/>
</clipPath>
</defs>
</svg>
